<svg xmlns="http://www.w3.org/2000/svg" width="600" height="400" viewBox="0 0 600 400" fill="none">
    <rect width="600" height="400" fill="white" />
    <circle cx="300" cy="200" r="150" fill="#FFE0B2" />
    <rect x="220" y="100" width="160" height="220" rx="10" fill="#1E2A5A" />
    <rect x="235" y="120" width="130" height="30" rx="5" fill="white" />
    <rect x="235" y="160" width="130" height="10" rx="5" fill="white" />
    <rect x="235" y="180" width="100" height="10" rx="5" fill="white" />
    <rect x="235" y="200" width="80" height="10" rx="5" fill="white" />
    <rect x="235" y="240" width="130" height="40" rx="5" fill="#FF9800" />
    <circle cx="450" cy="150" r="50" fill="#FF9800" />
    <path d="M450 120V180" stroke="white" stroke-width="5" />
    <path d="M420 150H480" stroke="white" stroke-width="5" />
    <circle cx="150" cy="250" r="60" fill="#1E2A5A" />
    <path d="M150 210V290" stroke="white" stroke-width="5" />
    <path d="M120 250H180" stroke="white" stroke-width="5" />
    <path d="M120 230H180" stroke="white" stroke-width="5" />
    <path d="M120 270H180" stroke="white" stroke-width="5" />
</svg> 